# xmcd CD database file
#
# Track frame offsets:
#	150
#	20772
#	43767
#	64452
#	87812
#	113932
#	128827
#	149415
#	166775
#	186030
#	208417
#	240980
#
# Disc length: 3737 seconds
#
# Revision: 0
# Processed by: cddbd v1.5PL3 Copyright (c) Steve Scherf et al.
# Submitted via: CDex 1.50
#
DISCID=ad0e970c
DTITLE=Various Artist - Nothin' but the Blues
DYEAR=1999
DGENRE=Blues
TTITLE0=T-Bone Walker- Every Day I Have the Blues
TTITLE1=T-Bone Walker- I Woke Up This Morning
TTITLE2=Buddy Guy- She Suites Me to a T
TTITLE3=Buddy Guy- She Winked Her Eye
TTITLE4=Buddy Guy- Texas Flood
TTITLE5=Muddy Waters- Hoochie Coochie Man
TTITLE6=Muddy Waters- So Long
TTITLE7=Muddy Waters- Baby Please Don't Go
TTITLE8=Chicago Blues Band and John Lee Hooker- Crawling King Snake
TTITLE9=Chicago Blues Band and John Lee Hooker- It Serves Me Right to Suffer
TTITLE10=T-Bone Walker- When I Grow Up
TTITLE11=T-Bone Walker- Long Lost Lover
EXTD=YEAR: 1999
EXTT0=
EXTT1=
EXTT2=
EXTT3=
EXTT4=
EXTT5=
EXTT6=
EXTT7=
EXTT8=
EXTT9=
EXTT10=
EXTT11=
PLAYORDER=
